<?xml version="1.0" standalone="no"?>
<!DOCTYPE svg PUBLIC "-//W3C//DTD SVG 20010904//EN"
 "http://www.w3.org/TR/2001/REC-SVG-20010904/DTD/svg10.dtd">
<svg version="1.0" xmlns="http://www.w3.org/2000/svg"
 width="700.000000pt" height="700.000000pt" viewBox="0 0 700.000000 700.000000"
 preserveAspectRatio="xMidYMid meet">
<metadata>
Created by potrace 1.14, written by Peter Selinger 2001-2017
</metadata>
<g transform="translate(0.000000,700.000000) scale(0.100000,-0.100000)"
fill="#000000" stroke="none">
<path d="M3437 6894 c-1 -1 -60 -4 -132 -8 -71 -4 -143 -9 -160 -10 -78 -9
-167 -22 -220 -33 -11 -2 -44 -8 -74 -13 -143 -25 -406 -104 -584 -176 -611
-248 -1154 -692 -1505 -1229 -29 -44 -56 -85 -61 -91 -41 -51 -202 -375 -259
-519 -62 -161 -95 -265 -139 -440 -11 -44 -43 -202 -48 -235 -2 -19 -7 -51
-10 -70 -22 -136 -30 -288 -30 -570 0 -248 7 -431 20 -500 2 -14 6 -41 9 -60
41 -323 150 -677 308 -1000 210 -429 505 -794 909 -1125 69 -57 279 -203 344
-239 17 -9 46 -26 65 -38 63 -37 283 -145 375 -183 138 -57 334 -122 458 -151
9 -2 27 -6 40 -9 59 -15 272 -55 319 -60 29 -3 71 -8 93 -11 167 -21 545 -20
695 0 19 3 58 8 85 11 179 20 481 94 680 166 192 70 475 202 526 246 8 7 19
13 23 13 16 0 330 211 356 240 3 3 39 32 80 64 109 86 372 354 467 476 83 105
223 304 223 317 0 3 6 14 14 22 32 36 162 287 221 426 47 110 143 388 151 435
3 14 7 31 10 39 9 27 53 239 59 287 4 27 8 56 10 64 3 8 7 44 10 80 4 36 9 81
12 100 9 63 11 643 2 730 -4 47 -11 112 -14 145 -2 33 -7 71 -9 85 -3 14 -7
41 -10 60 -14 87 -42 223 -56 270 -6 19 -13 48 -16 64 -9 54 -101 320 -149
431 -110 258 -281 547 -440 743 -5 7 -14 18 -20 25 -106 132 -302 334 -430
444 -406 348 -925 605 -1445 714 -52 11 -111 22 -130 25 -19 3 -41 7 -47 9 -7
2 -45 7 -85 11 -40 3 -76 8 -79 10 -11 6 -404 24 -412 18z"/>
</g>
</svg>
